<svg width="21" height="22" fill="none" xmlns="http://www.w3.org/2000/svg"><circle cx="10.5" cy="11.39" r="10.5" fill="#fff"/><path d="M11.5 10.74c.3-.27.52-.54.65-.8s.2-.6.2-1c0-.52-.15-.94-.45-1.26-.3-.31-.75-.47-1.36-.47-.6 0-1.04.16-1.34.47-.3.31-.52.73-.65 1.26a.46.46 0 0 1-.14.24.33.33 0 0 1-.22.09h-.64a.33.33 0 0 1-.23-.09.33.33 0 0 1-.08-.22A3.12 3.12 0 0 1 8.8 6.4a3.3 3.3 0 0 1 1.73-.45c.66 0 1.23.13 1.7.4s.83.63 1.07 1.08c.25.45.37.95.37 1.51 0 .6-.1 1.1-.31 1.52-.2.4-.54.83-1.02 1.26l-3.12 2.9h4.28c.1 0 .2.05.27.12.07.08.1.16.1.27v.5c0 .1-.03.2-.1.27a.36.36 0 0 1-.27.1H7.48c-.1 0-.2-.03-.27-.1a.36.36 0 0 1-.11-.27v-.5c0-.1.02-.19.05-.26.05-.07.13-.16.26-.28l4.1-3.73Z" fill="#000"/></svg>